<?xml version="1.0" standalone="no"?>
<!DOCTYPE svg PUBLIC "-//W3C//DTD SVG 20010904//EN"
 "http://www.w3.org/TR/2001/REC-SVG-20010904/DTD/svg10.dtd">
<svg version="1.0" xmlns="http://www.w3.org/2000/svg"
 width="900.000000pt" height="900.000000pt" viewBox="0 0 900.000000 900.000000"
 preserveAspectRatio="xMidYMid meet">

<g transform="translate(0.000000,900.000000) scale(0.100000,-0.100000)"
fill="#000000" stroke="none">
<path d="M4325 8955 c-5 -1 -62 -8 -125 -15 -143 -15 -440 -56 -512 -71 -166
-34 -311 -71 -453 -114 -84 -26 -306 -104 -350 -125 -11 -5 -49 -21 -85 -36
-101 -43 -394 -194 -500 -259 -808 -491 -1466 -1264 -1817 -2135 -205 -507
-307 -994 -338 -1600 -13 -267 49 -858 117 -1105 6 -22 17 -67 24 -100 8 -33
20 -82 29 -110 8 -27 23 -79 34 -115 21 -72 76 -234 91 -265 5 -11 19 -45 31
-75 70 -179 195 -434 296 -605 465 -785 1179 -1419 2013 -1785 353 -156 775
-270 1165 -315 77 -9 183 -23 235 -30 164 -25 313 -28 440 -10 63 8 156 20
205 26 621 69 1136 229 1645 510 655 362 1236 923 1634 1578 191 315 360 689
456 1011 12 41 26 84 30 95 16 43 85 337 95 405 4 25 13 79 20 120 7 41 21
145 30 230 9 85 23 191 31 235 18 104 18 360 -1 484 -8 53 -23 175 -35 271
-31 268 -80 516 -147 739 -14 47 -31 106 -38 131 -66 224 -244 621 -391 871
-329 558 -794 1058 -1314 1411 -576 391 -1178 620 -1860 708 -91 11 -212 28
-270 36 -90 12 -355 19 -385 9z m-394 -891 c112 -34 199 -109 275 -240 75
-128 108 -230 130 -399 15 -112 15 -131 1 -238 -29 -213 -70 -303 -136 -295
l-25 3 3 111 c4 173 -46 335 -139 453 -98 124 -231 136 -312 28 -146 -191
-134 -561 25 -779 19 -25 17 -48 -4 -48 -17 0 -101 84 -144 145 -59 85 -100
173 -141 310 -27 87 -27 432 -1 520 73 243 181 384 330 430 56 18 74 18 138
-1z m1078 -35 c119 -52 241 -207 305 -389 110 -307 50 -736 -129 -926 l-34
-36 -43 26 c-64 38 -66 45 -31 123 48 108 58 157 57 288 0 128 -16 196 -68
308 -49 103 -137 177 -212 177 -43 0 -118 -51 -150 -102 -39 -61 -71 -159 -85
-259 -10 -73 -9 -99 6 -180 24 -132 24 -133 -3 -137 -49 -7 -76 15 -99 81 -47
137 -57 196 -57 357 0 138 3 166 27 255 41 147 95 253 170 329 65 66 109 95
167 107 49 11 127 1 179 -22z m-343 -1234 c93 -30 182 -72 299 -140 211 -122
441 -241 538 -276 38 -14 69 -29 70 -35 3 -16 -152 -48 -383 -79 -52 -7 -109
-15 -125 -19 -51 -11 -279 -36 -475 -51 -102 -8 -246 -19 -320 -25 -212 -16
-448 -12 -671 11 -111 11 -213 25 -226 30 -34 13 -28 31 19 58 22 13 93 62
157 109 369 273 623 412 806 443 83 13 227 1 311 -26z m764 -619 c0 -7 -12
-22 -27 -31 -23 -16 -190 -159 -203 -175 -19 -23 -217 -181 -270 -215 -145
-93 -237 -123 -411 -135 -267 -18 -452 28 -706 176 -141 83 -373 254 -373 276
0 7 20 8 58 5 291 -31 555 -33 937 -7 305 20 756 74 950 114 38 7 45 6 45 -8z
m-6 -319 c23 -161 23 -481 1 -622 -20 -132 -51 -252 -80 -320 l-25 -55 83 -93
c152 -170 203 -231 283 -339 290 -390 469 -792 544 -1223 30 -167 29 -173 -37
-273 -175 -264 -330 -435 -446 -491 -185 -89 -354 4 -515 283 -60 104 -132
249 -132 265 0 16 -56 51 -81 51 -39 0 -93 -68 -114 -146 -50 -178 -5 -586
117 -1079 17 -66 34 -138 39 -160 5 -22 13 -51 18 -65 5 -14 19 -59 31 -100
54 -181 138 -411 181 -493 11 -21 17 -46 14 -56 -10 -33 -227 -108 -425 -147
-144 -29 -560 -27 -716 3 -188 37 -288 65 -513 148 -59 22 -314 151 -342 174
l-22 18 40 119 c79 230 146 528 183 814 34 266 40 338 40 518 0 161 -4 210
-19 270 -23 88 -58 144 -101 162 -28 12 -34 11 -58 -7 -15 -11 -52 -64 -82
-119 -38 -69 -78 -122 -130 -175 -65 -67 -83 -79 -134 -94 -56 -16 -63 -16
-112 -1 -90 28 -193 117 -348 299 -48 56 -49 59 -43 108 14 120 127 429 235
644 156 312 404 666 704 1004 32 36 58 74 58 86 0 11 -14 70 -30 130 -80 294
-113 521 -113 785 -1 211 6 260 34 260 5 0 37 -22 72 -49 330 -257 586 -366
892 -378 374 -15 575 72 945 410 35 31 68 57 75 57 8 0 18 -44 29 -123z m1139
-2725 c60 -62 62 -82 59 -472 -3 -415 5 -486 63 -605 43 -86 91 -134 173 -172
54 -26 65 -27 212 -27 120 0 165 4 200 17 85 32 90 19 24 -62 -124 -152 -376
-384 -584 -538 -210 -155 -274 -197 -470 -311 -190 -109 -207 -118 -333 -169
-144 -57 -248 -69 -320 -34 -64 31 -120 112 -183 266 -14 33 -29 69 -34 80
-33 69 -129 363 -180 550 -12 44 -28 103 -35 130 -22 78 -52 210 -74 325 -12
58 -25 128 -31 155 -15 75 -38 276 -46 401 -7 109 -1 184 14 184 5 0 26 -35
47 -77 105 -208 271 -402 390 -458 86 -40 191 -46 277 -15 88 32 180 96 265
182 102 103 164 183 321 418 156 233 177 260 201 260 10 0 29 -12 44 -28z
m-4348 -37 c42 -24 159 -142 309 -310 234 -262 388 -338 557 -275 78 30 186
129 263 245 32 47 62 85 66 85 18 0 22 -74 17 -278 -7 -285 -22 -420 -78 -727
-82 -446 -202 -795 -311 -904 -82 -83 -170 -76 -439 32 -118 48 -389 186 -536
273 -297 175 -538 351 -700 510 -79 77 -104 115 -65 99 109 -47 345 -85 457
-74 109 11 151 24 214 68 69 47 123 124 158 226 27 78 28 86 27 280 0 110 -6
227 -12 260 -50 268 -83 485 -76 497 20 32 86 29 149 -7z"/>
</g>
</svg>
